<?xml version="1.0" encoding="utf-8"?><!-- Uploaded to: SVG Repo, www.svgrepo.com, Generator: SVG Repo Mixer Tools -->
<svg fill="#000000" width="800px" height="800px" viewBox="0 0 24 24" id="upload-3" data-name="Flat Color" xmlns="http://www.w3.org/2000/svg" class="icon flat-color"><path id="secondary" d="M15.71,5.29l-3-3a1,1,0,0,0-1.42,0l-3,3A1,1,0,0,0,9.71,6.71L11,5.41V17a1,1,0,0,0,2,0V5.41l1.29,1.3a1,1,0,0,0,1.42,0A1,1,0,0,0,15.71,5.29Z" style="fill: rgb(44, 169, 188);"></path><path id="primary" d="M19,22H5a2,2,0,0,1-2-2V11A2,2,0,0,1,5,9H8a1,1,0,0,1,0,2H5v9H19V11H16a1,1,0,0,1,0-2h3a2,2,0,0,1,2,2v9A2,2,0,0,1,19,22Z" style="fill: rgb(0, 0, 0);"></path></svg>